
IMDB:  http://www.imdb.com/title/tt2371411/

Language: Mandarin
Subtitles: English hardcoded +



General
Complete name                            : Painted Skin The Resurrection 2012 HDTV x264 AC3-SSN.mkv
Format                                   : Matroska
Format version                           : Version 2
File size                                : 1.14 GiB
Duration                                 : 2h 11mn
Overall bit rate                         : 1 246 Kbps
Encoded date                             : UTC 2012-09-10 15:12:21
Writing application                      : mkvmerge v5.8.0 ('No Sleep / Pillow') built on Sep  2 2012 15:37:04
Writing library                          : libebml v1.2.3 + libmatroska v1.3.0

Video
ID                                       : 1
Format                                   : AVC
Format/Info                              : Advanced Video Codec
Format profile                           : High@L4.1
Format settings, CABAC                   : Yes
Format settings, ReFrames                : 5 frames
Codec ID                                 : V_MPEG4/ISO/AVC
Duration                                 : 2h 11mn
Bit rate                                 : 1 054 Kbps
Width                                    : 854 pixels
Height                                   : 364 pixels
Display aspect ratio                     : 2.35:1
Original display aspect ratio            : 2.35:1
Frame rate mode                          : Constant
Frame rate                               : 24.000 fps
Color space                              : YUV
Chroma subsampling                       : 4:2:0
Bit depth                                : 8 bits
Scan type                                : Progressive
Bits/(Pixel*Frame)                       : 0.169
Stream size                              : 967 MiB (83%)
Writing library                          : x264 core 125 r2208 d9d2288
Language                                 : English
Default                                  : Yes
Forced                                   : No

Audio
ID                                       : 2
Format                                   : AC-3
Format/Info                              : Audio Coding 3
Mode extension                           : CM (complete main)
Format settings, Endianness              : Big
Codec ID                                 : A_AC3
Duration                                 : 2h 11mn
Bit rate mode                            : Constant
Bit rate                                 : 192 Kbps
Channel(s)                               : 2 channels
Channel positions                        : Front: L R
Sampling rate                            : 48.0 KHz
Bit depth                                : 16 bits
Compression mode                         : Lossy
Stream size                              : 180 MiB (15%)
Default                                  : Yes
Forced                                   : No


 
http://3.firepic.org/3/images/2012-09/10/ltlhl6clm6z3.png
 
http://3.firepic.org/3/images/2012-09/10/hbk2snhxajoz.png
 
http://3.firepic.org/3/images/2012-09/10/0zfx41cuh4o8.png